<svg xmlns="http://www.w3.org/2000/svg" xmlns:xlink="http://www.w3.org/1999/xlink" width="40" zoomAndPan="magnify" viewBox="0 0 30 30.000001" height="40" preserveAspectRatio="xMidYMid meet" version="1.0"><defs><clipPath id="206407dd22"><path d="M 19 19 L 29.515625 19 L 29.515625 27 L 19 27 Z M 19 19 " clip-rule="nonzero"/></clipPath><clipPath id="0e7c8871db"><path d="M 0.484375 21 L 15 21 L 15 27 L 0.484375 27 Z M 0.484375 21 " clip-rule="nonzero"/></clipPath></defs><path fill="#899178" d="M 19.425781 19.515625 L 16.710938 14.816406 C 16.4375 14.34375 16.4375 13.757812 16.710938 13.285156 L 19.054688 9.226562 L 22.210938 14.6875 C 23.449219 16.835938 21.902344 19.515625 19.425781 19.515625 Z M 19.425781 19.515625 " fill-opacity="1" fill-rule="nonzero"/><g clip-path="url(#206407dd22)"><path fill="#899178" d="M 29.171875 26.75 L 24.828125 26.75 C 24.070312 26.75 23.371094 26.34375 22.988281 25.6875 L 20.816406 21.925781 L 19.425781 19.515625 L 23.140625 19.515625 C 24.289062 19.515625 25.351562 20.125 25.925781 21.121094 L 26.390625 21.925781 Z M 29.171875 26.75 " fill-opacity="1" fill-rule="nonzero"/></g><g clip-path="url(#0e7c8871db)"><path fill="#899178" d="M 14.257812 21.925781 L 12.398438 25.140625 C 11.824219 26.136719 10.761719 26.75 9.613281 26.75 L 0.828125 26.75 L 3 22.988281 C 3.378906 22.328125 4.082031 21.925781 4.839844 21.925781 Z M 14.257812 21.925781 " fill-opacity="1" fill-rule="nonzero"/></g><path fill="#899178" d="M 17.171875 8.085938 L 13.726562 14.050781 L 11.871094 10.835938 C 11.296875 9.839844 11.296875 8.613281 11.871094 7.617188 L 15 2.199219 L 17.171875 5.960938 C 17.550781 6.621094 17.550781 7.429688 17.171875 8.085938 Z M 17.171875 8.085938 " fill-opacity="1" fill-rule="nonzero"/><path fill="#899178" d="M 13.726562 14.050781 L 11.015625 18.75 C 10.742188 19.222656 10.238281 19.515625 9.691406 19.515625 L 5.003906 19.515625 L 8.15625 14.054688 C 9.394531 11.910156 12.488281 11.90625 13.726562 14.050781 Z M 13.726562 14.050781 " fill-opacity="1" fill-rule="nonzero"/></svg>